<svg viewBox="6.621621621621621 -6.49 87.02702702702703 112.05" version="1.1" xmlns="http://www.w3.org/2000/svg" style="max-height: 500px" width="87.02702702702703" height="112.05">
 <path d="m30.344 85.406c1.5156 1.2344 3.2344 1.8438 5.1562 1.8438 1.0938 0 2.2969-0.25 3.5938-0.76562v-4.7344c-0.375 0.46875-0.76562 0.8125-1.1406 1.0312-0.70312 0.42188-1.4688 0.64062-2.2812 0.64062-1.0312 0-1.9219-0.3125-2.6875-0.92188-0.95312-0.78125-1.4375-1.8594-1.4375-3.2031s0.48438-2.4375 1.4375-3.2188c0.76562-0.625 1.6562-0.92188 2.6875-0.92188 0.8125 0 1.5781 0.21875 2.2812 0.64062 0.39062 0.23438 0.76562 0.57812 1.1406 1.0312v-4.7344c-1.3125-0.51562-2.5-0.76562-3.5625-0.76562-1.9375 0-3.6719 0.60938-5.1875 1.8438-1.9375 1.5625-2.9062 3.6094-2.9062 6.1406s0.96875 4.5625 2.9062 6.1406z"/>
 <path d="m46.078 84.188h5.4688l0.96875 2.6562h4.2344l-5.7344-15.234h-4.3125l-5.8594 15.234h4.1719zm2.75-7.8594 1.6406 4.8438h-3.2969l1.6719-4.8438z"/>
 <path d="m67.438 86.438c1.5-0.51562 2.7031-1.4688 3.6719-2.8125 0.95312-1.3594 1.4219-2.8281 1.4219-4.4062 0-1.125-0.25-2.25-0.78125-3.3125-0.64062-1.2812-1.5469-2.3125-2.75-3.0938-1.2344-0.79688-2.5469-1.2031-3.9844-1.2031h-5.8438v15.234h5.8438c0.8125 0 1.625-0.14062 2.4062-0.40625zm-4.2969-2.8906v-8.625h0.90625c1.5469 0 2.7031 0.51562 3.5 1.5469 0.59375 0.79688 0.875 1.7031 0.875 2.75s-0.28125 1.9688-0.875 2.7656c-0.78125 1.0312-1.9531 1.5469-3.5 1.5469h-0.90625z"/>
 <path d="m87.25 28.703c-0.046875-0.78125-0.34375-1.5469-0.90625-2.1406l-23.5-24c-0.57812-0.59375-1.3594-0.90625-2.1562-0.95312v-0.046875h-34.766c-7.3906 0.39062-13.172 6.5-13.188 13.891l-0.03125 69.031c0 7.6719 6.2344 13.922 13.922 13.922h46.703c7.6719 0.015625 13.922-6.2188 13.922-13.891v-55.812h-0.015625zm-23.453-15.609 12.188 12.453h-7.9219c-2.3594 0-4.2656-1.9219-4.2656-4.2656zm16.781 71.422c0 3.9844-3.25 7.2344-7.2344 7.2344h-46.703c-3.9219-0.015625-7.2344-3.3281-7.2344-7.25v-17.703l61.188 0.015625v17.703zm0-24.391h-61.172l0.015625-44.656c0-3.8438 3.0156-7.0156 6.7188-7.2188h30.969v13.031c0 6.0312 4.9062 10.953 10.938 10.953h12.547v27.891z"/>
<text fill="#000000" font-family="Arbeit Regular, Helvetica, Arial-Unicode, Arial, Sans-serif" font-weight="bold" font-size="5.0" y="117.5" x="0.0">Created by SHAHAREA</text><text fill="#000000" font-family="Arbeit Regular, Helvetica, Arial-Unicode, Arial, Sans-serif" font-weight="bold" font-size="5.0" y="122.5" x="0.0">from Noun Project</text></svg>