<svg xml:space="preserve" style="max-height: 500px" viewBox="10.465 9.3275 69.3875 75.30250000000001" y="0px" x="0px" version="1.1" xmlns:xlink="http://www.w3.org/1999/xlink" xmlns="http://www.w3.org/2000/svg" width="69.3875" height="75.30250000000001"><g><g><path d="M73.6,24.2C69.8,13.4,54.7,14.1,46,16.5c-0.6,0.2-1,0.5-1.4,0.8c-4.1-1.8-8.4-2.9-12.7-2.5c-8,0.7-15.1,7.2-16.5,15.1    c-1.8,9.5,6.1,15.3,8.3,23.8c2,8,0.3,17.5,6.6,23.9c8.3,8.5,12.7-8,14.3-13.5c0.6-2,1.1-4,1.7-6c0.3-1,0.5-2,0.7-2.9    c0.2-1,0.5-0.9,0.8-0.5c1.5,1.7,1.7,3.3,2.2,5.4c0.5,2,0.7,4.1,1,6.1c0.5,3.5,0.9,7.6,3.1,10.6c2.5,3.2,6,3,8.7,0.1    c6-6.6,4.5-16.1,6-24.2C70.5,43.2,77.1,34.1,73.6,24.2z M65,50c-1.6,7,0,15.4-3.7,21.9c-0.9,1.6-2.2,3.7-3.9,1.7    c-0.9-1.1-1.2-3.3-1.5-4.6c-0.7-3.3-1-6.7-1.8-10c-1-4-5.2-12.9-10.4-8.1c-2.1,2-2.9,5.3-3.6,8c-1.1,3.7-2,7.5-3.4,11.1    c-0.2,0.5-1.3,3.9-2,4c-0.4,0.1-2.2-3.4-2.4-4c-1.4-3.4-1.5-7.2-1.8-10.7c-0.3-3.3-0.7-6.6-1.9-9.7c-1.3-3.6-3.6-6.6-5.4-10    c-2-3.7-2.9-7.5-1.1-11.5c1.6-3.5,4.9-6.4,8.6-7.5c7.6-2.1,17,3.4,23.7,6.4c2.2,1,4.1-2,1.9-3.3c-1.5-0.9-3-1.9-4.6-2.8    c7.5-1.5,17.5-1.3,18.5,7.4C71,36.1,66.7,42.8,65,50z"/><path d="M1.8,17.6c0.4,0.9,1.9,0.9,2.3,0c0.9-2,0.8-4.4,0.9-6.5C5,9.3,5.1,7.5,5.2,5.7C8.9,5.6,12.6,6,16.3,6.1    c3,0.1,2.9-4.3,0-4.6C11.9,1.1,7.4,0.8,3,1.2c-1.2,0.1-2.3,1-2.3,2.3c0,2.5,0.1,5,0.2,7.6C1,13.2,0.8,15.6,1.8,17.6z"/><path d="M90.4,9c-0.1-1.8,0.4-5-0.7-6.6c-1.2-1.8-3.9-1.3-5.8-1.3c-3.2,0-6.5-0.1-9.7,0.5c-1.5,0.3-1.5,2.7,0,3    c2.1,0.4,4.4,0.4,6.6,0.5c1.3,0,3.9-0.3,5.3-0.2c0.7,3.8-0.3,8,0.5,11.8c0.5,2.4,3.7,1.6,4-0.5C90.8,13.9,90.5,11.4,90.4,9z"/><path d="M15.5,85.4c-3.4-0.2-6.9-0.1-10.3,0c0-3.8,0-8-1.1-11.4c-0.4-1.1-1.9-1.1-2.2,0c-1.3,4.2-1,9.3-1.1,13.7    c0,1.2,1,2.2,2.2,2.2c4.2,0.1,8.4,0.5,12.5,0.3C18.6,90,18.6,85.6,15.5,85.4z"/><path d="M85.5,74.2c-0.2,3.8,0.4,7.3-0.5,11c-0.3,0-0.6,0-0.7,0c-1.4-0.1-2.9-0.1-4.3-0.2c-2.1-0.1-4.2-0.3-6.4-0.4    c-3.6-0.2-3.6,5.8,0,5.6c4-0.2,8.2-0.1,12.2-0.4c3.6-0.3,3.8-3.9,4-6.9c0.2-2.9,0.1-6.5-0.8-9.2C88.3,71.9,85.6,72.2,85.5,74.2z"/><path d="M30.7,25.7c-2.6,2.3-3.2,6.2-2,9.3c0.5,1.2,1.7,2.2,3,1.7c0.4-0.1,0.7-0.3,1.1-0.6c0.9-0.7,0.8-2,0.4-3    c-0.7-1.6-0.3-3.5,1-4.7c1.2-1.2,3.1-1.1,4.2-2.4c0.2-0.3,0.3-0.6,0.1-0.9C37,22.3,32.4,24.2,30.7,25.7z"/><path d="M33.6,38.8c-1.4,0-2.6,1.2-2.6,2.6s1.2,2.6,2.6,2.6c1.4,0,2.6-1.2,2.6-2.6S35.1,38.8,33.6,38.8z"/></g></g><text font-family="'Helvetica Neue', Helvetica, Arial-Unicode, Arial, Sans-serif" font-weight="bold" font-size="5px" fill="#000000" y="106" x="0">Created by BomSymbols</text><text font-family="'Helvetica Neue', Helvetica, Arial-Unicode, Arial, Sans-serif" font-weight="bold" font-size="5px" fill="#000000" y="111" x="0">from the Noun Project</text></svg>