<svg viewBox="4.1891891891891895 -5.140000000000001 91.8918918918919 107.46000000000001" version="1.1" xmlns="http://www.w3.org/2000/svg" style="max-height: 500px" width="91.8918918918919" height="107.46000000000001">
 <g>
  <path d="m81.148 41.031c1.4336-3.5039 3.5234-8.6719 3.6484-9.0508 2.2773-6.793 0.58984-16.582-3.8594-22.09-2.1719-2.7422-5.043-4.6836-8.207-5.8008-3.7969-1.3906-8.0156-1.5195-12.047-0.29688-2.6992 0.82422-5.2109 2.1289-7.7227 3.3555-0.42188 0.23047-0.42188 0.82422 0 0.99219 5.9062 3.2266 11.75 4.9805 17.363 4.2812l0.35938 0.86328c-4.5586 0.82422-9.3047 0.125-13.691-1.3281-4.4531-1.4766-8.7344-3.3555-12.699-5.8242-4.6406-2.8047-8.207-3.0391-8.207-3.0391-2.9961-0.35938-5.9062 0-8.7148 0.99219-3.1641 1.1172-6.0352 3.0586-8.207 5.8008-4.4531 5.5078-6.1406 15.297-3.8594 22.09 0.125 0.37891 2.1094 5.4844 3.4805 8.9883 0.75781 1.9414 2.6367 3.2266 4.7266 3.2266h52.934c2.0664 0.003906 3.9258-1.2422 4.7031-3.1602zm-58.438-6.3086-1.3516-4.5977s-2.0469-10.379 5.125-16.922c2.7227-2.4688 6.4961-3.418 10.125-2.9102z"/>
  <path d="m70.965 58.727c1.1328 0 2.0547-0.91797 2.0547-2.0547v-6.9414c0-1.1328-0.91797-2.0547-2.0547-2.0547h-41.824c-1.1328 0-2.0547 0.91797-2.0547 2.0547v6.9414c0 1.1328 0.91797 2.0547 2.0547 2.0547h11.332v3.6367h-3.293v4.043h3.293v4.6367h-3.293v4.043h3.293v4.6367h-3.293v4.043h3.293v2.2656c0 0.37891 0.125 0.78125 0.40234 1.0547l7.9961 8.8828c0.63281 0.69531 1.7305 0.69531 2.3633 0l7.9961-8.8828c0.27344-0.27344 0.42188-0.67578 0.42188-1.0547v-2.2656h3.2734v-4.043h-3.2734v-4.6367h3.2734v-4.043h-3.2734v-4.6367h3.2734v-4.043h-3.2734v-3.6367zm-15.785 25.828c0 0.21094-0.085938 0.40234-0.23047 0.57031l-4.2617 4.7461c-0.33594 0.35938-0.92969 0.35938-1.2656 0l-4.2617-4.7461c-0.14844-0.16797-0.23047-0.35938-0.23047-0.57031v-0.78906h10.254zm0-4.832h-10.254v-4.6367h10.254zm0-8.6797h-10.254v-4.6367h10.254zm0-8.6797h-10.254v-3.6367h10.254z"/>
 </g>
<text fill="#000000" font-family="Arbeit Regular, Helvetica, Arial-Unicode, Arial, Sans-serif" font-weight="bold" font-size="5.0" y="117.5" x="0.0">Created by Nubaia Karim Barsha</text><text fill="#000000" font-family="Arbeit Regular, Helvetica, Arial-Unicode, Arial, Sans-serif" font-weight="bold" font-size="5.0" y="122.5" x="0.0">from Noun Project</text></svg>