<svg viewBox="2.8378378378378386 4.309999999999999 98.91891891891892 92.34" version="1.1" xmlns="http://www.w3.org/2000/svg" style="max-height: 500px" width="98.91891891891892" height="92.34">
 <path fill-rule="evenodd" d="m56.531 43.211c7.6133 0.5625 13.613 6.918 13.613 14.676 0 2.2891-0.52344 4.457-1.457 6.3867l0.035156 0.019531 5.1641 2.9805c0.023437 0.015624 0.046875 0.027343 0.070312 0.042968 1.3789-1.7383 3.5078-2.8516 5.8984-2.8516 4.1523 0 7.5234 3.3672 7.5234 7.5234 0 4.1523-3.3672 7.5234-7.5234 7.5234s-7.5234-3.3672-7.5234-7.5234c0-0.98047 0.1875-1.9141 0.52734-2.7734-0.023437-0.011719-0.046875-0.023438-0.070313-0.035156l-5.1641-2.9805-0.039062-0.023438c-2.6484 3.8789-7.1055 6.4258-12.16 6.4258-5.0508 0-9.5078-2.5469-12.16-6.4258l-0.035156 0.023438-16.023 9.25c-0.023437 0.015625-0.046875 0.027343-0.070312 0.039062 0.33984 0.85938 0.52734 1.793 0.52734 2.7695 0 4.1562-3.3672 7.5234-7.5234 7.5234s-7.5234-3.3672-7.5234-7.5234c0-4.1523 3.3672-7.5234 7.5234-7.5234 2.3906 0 4.5156 1.1133 5.8945 2.8516 0.023438-0.015626 0.042969-0.027344 0.066406-0.042969l16.023-9.25 0.035156-0.019531c-0.93359-1.9297-1.4531-4.0977-1.4531-6.3867 0-7.7578 6-14.109 13.613-14.676v-13.938c0-0.027344 0-0.054688 0.003907-0.082032-3.6328-0.53125-6.4219-3.6602-6.4219-7.4414 0-4.1562 3.3672-7.5234 7.5234-7.5234s7.5234 3.3672 7.5234 7.5234c0 3.7812-2.7891 6.9102-6.4219 7.4414 0.003906 0.027344 0.003906 0.054688 0.003906 0.082032zm1.3555 6.3633c1.3516 0.39844 2.5703 1.1211 3.5586 2.0742 0.99219 0.95703 1.7539 2.1484 2.2031 3.4844 0.19141 0.57813 0.81641 0.88672 1.3945 0.69531s0.88672-0.81641 0.69531-1.3945c-0.55859-1.6758-1.5195-3.1719-2.7617-4.3711-1.2383-1.1953-2.7656-2.1016-4.4648-2.6016-0.58203-0.17188-1.1953 0.16406-1.3672 0.74609-0.17578 0.58594 0.15625 1.1953 0.74219 1.3672z"/>
<text fill="#000000" font-family="Arbeit Regular, Helvetica, Arial-Unicode, Arial, Sans-serif" font-weight="bold" font-size="5.0" y="117.5" x="0.0">Created by zIcon</text><text fill="#000000" font-family="Arbeit Regular, Helvetica, Arial-Unicode, Arial, Sans-serif" font-weight="bold" font-size="5.0" y="122.5" x="0.0">from Noun Project</text></svg>