<svg xmlns="http://www.w3.org/2000/svg" xmlns:xlink="http://www.w3.org/1999/xlink" xmlns:serif="http://www.serif.com/" viewBox="0 0 26 32.5" version="1.1" xml:space="preserve" style="" x="0px" y="0px" fill-rule="evenodd" clip-rule="evenodd" stroke-linejoin="round" stroke-miterlimit="2"><g transform="matrix(1,0,0,1,-127,-54)"><g transform="matrix(0.91992,0,0,0.91992,4.74903,12.262)"><path d="M136.856,57.432L136.856,60.302C136.856,61.082 137.166,61.83 137.718,62.382C138.27,62.934 139.018,63.244 139.798,63.244C139.799,63.244 139.799,63.244 139.8,63.244C140.581,63.244 141.329,62.933 141.881,62.381C142.405,61.858 142.542,61.239 142.73,60.421C142.746,60.353 142.742,60.352 142.762,60.229C142.802,59.988 142.893,59.77 142.999,59.58C143.106,59.772 143.199,59.993 143.238,60.233C143.249,60.298 143.355,60.837 143.546,61.364C143.691,61.767 143.893,62.156 144.119,62.381C144.671,62.933 145.419,63.244 146.2,63.244C146.981,63.244 147.729,62.933 148.281,62.381C148.833,61.829 149.144,61.081 149.144,60.3C149.144,60.3 149.144,57.432 149.144,57.432C150.103,56.599 150.71,55.37 150.71,54C150.71,51.492 148.675,49.456 146.167,49.456C144.936,49.456 143.818,49.947 143,50.743C142.182,49.947 141.064,49.456 139.833,49.456C137.325,49.456 135.29,51.492 135.29,54C135.29,55.37 135.897,56.599 136.856,57.432ZM137.944,57.174C137.944,57.005 137.865,56.846 137.731,56.743C136.908,56.111 136.377,55.117 136.377,54C136.377,52.092 137.925,50.544 139.833,50.544C140.947,50.544 141.938,51.071 142.57,51.89C142.673,52.023 142.832,52.101 143,52.101C143.168,52.101 143.327,52.023 143.43,51.89C144.062,51.071 145.053,50.544 146.167,50.544C148.075,50.544 149.623,52.092 149.623,54C149.623,55.117 149.092,56.111 148.269,56.743C148.135,56.846 148.056,57.005 148.056,57.174L148.056,60.3C148.056,60.792 147.861,61.265 147.513,61.613C147.165,61.961 146.692,62.156 146.2,62.156C145.708,62.156 145.235,61.961 144.887,61.613C144.753,61.478 144.655,61.234 144.568,60.994C144.41,60.557 144.32,60.111 144.311,60.057C144.181,59.262 143.662,58.607 143.43,58.308C143.327,58.174 143.168,58.096 143,58.096C142.832,58.096 142.673,58.174 142.57,58.308C142.339,58.607 141.821,59.25 141.689,60.053C141.676,60.133 141.681,60.134 141.67,60.178C141.535,60.768 141.49,61.236 141.113,61.613C140.765,61.961 140.292,62.156 139.8,62.156L139.798,62.156C139.306,62.156 138.834,61.961 138.487,61.613C138.139,61.266 137.944,60.794 137.944,60.302C137.944,60.302 137.944,57.174 137.944,57.174Z"/></g><g transform="matrix(1.14294,0,0,1.14294,-20.02,-11.3342)"><path d="M145,63.437L149,63.437C149.241,63.437 149.437,63.241 149.437,63C149.437,62.759 149.241,62.563 149,62.563L145,62.563C144.759,62.563 144.563,62.759 144.563,63C144.563,63.241 144.759,63.437 145,63.437Z"/></g><g transform="matrix(1.14294,0,0,1.14294,-20.02,-7.90542)"><path d="M145,63.437L149,63.437C149.241,63.437 149.437,63.241 149.437,63C149.437,62.759 149.241,62.563 149,62.563L145,62.563C144.759,62.563 144.563,62.759 144.563,63C144.563,63.241 144.759,63.437 145,63.437Z"/></g><g transform="matrix(1.14294,0,0,1.14294,-20.02,-4.47661)"><path d="M145,63.437L149,63.437C149.241,63.437 149.437,63.241 149.437,63C149.437,62.759 149.241,62.563 149,62.563L145,62.563C144.759,62.563 144.563,62.759 144.563,63C144.563,63.241 144.759,63.437 145,63.437Z"/></g><path d="M137.205,73.657L137.205,76.172L134.133,76.172C133.736,76.172 133.354,76.33 133.073,76.611C132.791,76.892 132.633,77.274 132.633,77.672L132.633,77.958C132.633,78.786 133.305,79.458 134.133,79.458C136.667,79.458 143.315,79.458 145.849,79.458C146.677,79.458 147.349,78.786 147.349,77.958L147.349,77.672C147.349,77.274 147.191,76.892 146.909,76.611C146.628,76.33 146.246,76.172 145.849,76.172L142.777,76.172L142.777,73.657L151.563,73.657C151.961,73.657 152.343,73.499 152.624,73.217C152.905,72.936 153.063,72.555 153.063,72.157L153.063,56.042C153.063,55.645 152.905,55.263 152.624,54.982C152.343,54.7 151.961,54.542 151.563,54.542C147.543,54.542 132.583,54.542 128.563,54.542C128.165,54.542 127.784,54.7 127.503,54.982C127.221,55.263 127.063,55.645 127.063,56.042C127.063,59.209 127.063,68.99 127.063,72.157C127.063,72.555 127.221,72.936 127.503,73.217C127.784,73.499 128.165,73.657 128.563,73.657L137.205,73.657ZM134.133,77.172L145.849,77.172C145.981,77.172 146.108,77.224 146.202,77.318C146.296,77.412 146.349,77.539 146.349,77.672C146.349,77.672 146.349,77.958 146.349,77.958C146.349,78.234 146.125,78.458 145.849,78.458L134.133,78.458C133.857,78.458 133.633,78.234 133.633,77.958C133.633,77.958 133.633,77.672 133.633,77.672C133.633,77.539 133.686,77.412 133.78,77.318C133.874,77.224 134.001,77.172 134.133,77.172ZM141.777,73.657L138.205,73.657L138.205,76.172L141.777,76.172L141.777,73.657ZM152.063,56.042L152.063,72.157C152.063,72.289 152.011,72.416 151.917,72.51C151.823,72.604 151.696,72.657 151.563,72.657L128.563,72.657C128.431,72.657 128.303,72.604 128.21,72.51C128.116,72.416 128.063,72.289 128.063,72.157L128.063,56.042C128.063,55.91 128.116,55.783 128.21,55.689C128.303,55.595 128.431,55.542 128.563,55.542L151.563,55.542C151.696,55.542 151.823,55.595 151.917,55.689C152.011,55.783 152.063,55.91 152.063,56.042Z"/></g><text x="0" y="41" fill="#000000" font-size="5px" font-weight="bold" font-family="'Helvetica Neue', Helvetica, Arial-Unicode, Arial, Sans-serif">Created by Siti Norhayah Rahmatiah</text><text x="0" y="46" fill="#000000" font-size="5px" font-weight="bold" font-family="'Helvetica Neue', Helvetica, Arial-Unicode, Arial, Sans-serif">from the Noun Project</text></svg>